# xmcd CD database file
#
# Track frame offsets:
#	187
#	24842
#	47277
#	72577
#	93397
#	111240
#	137687
#	155340
#	174105
#
# Disc length: 2622 seconds
#
# Revision: 0
# Processed by: cddbd v1.5.1PL0 Copyright (c) Steve Scherf et al.
# Submitted via: CDex 1.51
#
DISCID=670a3c09
DTITLE=paris blue - SING A SIMPLE SONG
DYEAR=1992
DGENRE=JPop
TTITLE0=愛しすぎて
TTITLE1=YEAH! YEAH!
TTITLE2=そっとやさしく
TTITLE3=二人だけの週末
TTITLE4=夏をもう一度
TTITLE5=あなたがすき
TTITLE6=切なくて
TTITLE7=今夜はおやすみ
TTITLE8=あなたの笑顔とわたしの笑顔
EXTD=YEAR: 1992
EXTT0=
EXTT1=
EXTT2=
EXTT3=
EXTT4=
EXTT5=
EXTT6=
EXTT7=
EXTT8=
PLAYORDER=
